<mxfile host="65bd71144e">
    <diagram name="Page-1" id="VCEPgOhNraVawhyDC7fd">
        <mxGraphModel dx="1656" dy="739" grid="1" gridSize="10" guides="1" tooltips="1" connect="1" arrows="1" fold="1" page="1" pageScale="1" pageWidth="850" pageHeight="1100" math="0" shadow="0">
            <root>
                <mxCell id="0"/>
                <mxCell id="1" parent="0"/>
                <mxCell id="RUOIWVDQM4JpRzRn8MzW-6" style="edgeStyle=orthogonalEdgeStyle;shape=link;rounded=0;orthogonalLoop=1;jettySize=auto;html=1;exitX=1;exitY=0.5;exitDx=0;exitDy=0;entryX=0;entryY=0.5;entryDx=0;entryDy=0;" parent="1" source="RUOIWVDQM4JpRzRn8MzW-1" target="RUOIWVDQM4JpRzRn8MzW-2" edge="1">
                    <mxGeometry relative="1" as="geometry"/>
                </mxCell>
                <mxCell id="RUOIWVDQM4JpRzRn8MzW-34" style="edgeStyle=none;rounded=0;orthogonalLoop=1;jettySize=auto;html=1;exitX=0;exitY=0.5;exitDx=0;exitDy=0;entryX=1;entryY=0.5;entryDx=0;entryDy=0;shape=link;" parent="1" source="RUOIWVDQM4JpRzRn8MzW-1" target="RUOIWVDQM4JpRzRn8MzW-33" edge="1">
                    <mxGeometry relative="1" as="geometry"/>
                </mxCell>
                <mxCell id="RUOIWVDQM4JpRzRn8MzW-83" style="edgeStyle=none;rounded=0;orthogonalLoop=1;jettySize=auto;html=1;exitX=0.5;exitY=1;exitDx=0;exitDy=0;entryX=0.5;entryY=0;entryDx=0;entryDy=0;endArrow=none;endFill=0;" parent="1" source="RUOIWVDQM4JpRzRn8MzW-1" target="RUOIWVDQM4JpRzRn8MzW-82" edge="1">
                    <mxGeometry relative="1" as="geometry"/>
                </mxCell>
                <mxCell id="RUOIWVDQM4JpRzRn8MzW-101" style="edgeStyle=none;rounded=0;orthogonalLoop=1;jettySize=auto;html=1;exitX=0.5;exitY=0;exitDx=0;exitDy=0;entryX=0.5;entryY=1;entryDx=0;entryDy=0;endArrow=none;endFill=0;" parent="1" source="RUOIWVDQM4JpRzRn8MzW-1" target="RUOIWVDQM4JpRzRn8MzW-80" edge="1">
                    <mxGeometry relative="1" as="geometry"/>
                </mxCell>
                <mxCell id="RUOIWVDQM4JpRzRn8MzW-103" style="edgeStyle=none;rounded=0;orthogonalLoop=1;jettySize=auto;html=1;exitX=0.5;exitY=0;exitDx=0;exitDy=0;entryX=0.5;entryY=1;entryDx=0;entryDy=0;endArrow=none;endFill=0;" parent="1" source="RUOIWVDQM4JpRzRn8MzW-1" target="RUOIWVDQM4JpRzRn8MzW-81" edge="1">
                    <mxGeometry relative="1" as="geometry"/>
                </mxCell>
                <mxCell id="RUOIWVDQM4JpRzRn8MzW-1" value="ART_OBJECT" style="rounded=0;whiteSpace=wrap;html=1;" parent="1" vertex="1">
                    <mxGeometry x="350" y="1440" width="120" height="60" as="geometry"/>
                </mxCell>
                <mxCell id="RUOIWVDQM4JpRzRn8MzW-15" style="edgeStyle=none;rounded=0;orthogonalLoop=1;jettySize=auto;html=1;entryX=0;entryY=0.5;entryDx=0;entryDy=0;endArrow=none;endFill=0;exitX=1;exitY=0;exitDx=0;exitDy=0;" parent="1" source="RUOIWVDQM4JpRzRn8MzW-2" target="RUOIWVDQM4JpRzRn8MzW-7" edge="1">
                    <mxGeometry relative="1" as="geometry">
                        <mxPoint x="580" y="1460" as="sourcePoint"/>
                    </mxGeometry>
                </mxCell>
                <mxCell id="RUOIWVDQM4JpRzRn8MzW-16" style="edgeStyle=none;rounded=0;orthogonalLoop=1;jettySize=auto;html=1;exitX=0;exitY=0.5;exitDx=0;exitDy=0;entryX=0;entryY=0.5;entryDx=0;entryDy=0;endArrow=none;endFill=0;exitPerimeter=0;" parent="1" source="RUOIWVDQM4JpRzRn8MzW-17" target="RUOIWVDQM4JpRzRn8MzW-8" edge="1">
                    <mxGeometry relative="1" as="geometry"/>
                </mxCell>
                <mxCell id="RUOIWVDQM4JpRzRn8MzW-2" value="d" style="ellipse;whiteSpace=wrap;html=1;aspect=fixed;" parent="1" vertex="1">
                    <mxGeometry x="550" y="1455" width="30" height="30" as="geometry"/>
                </mxCell>
                <mxCell id="RUOIWVDQM4JpRzRn8MzW-25" style="edgeStyle=none;rounded=0;orthogonalLoop=1;jettySize=auto;html=1;exitX=1;exitY=0;exitDx=0;exitDy=0;endArrow=none;endFill=0;" parent="1" source="RUOIWVDQM4JpRzRn8MzW-7" target="RUOIWVDQM4JpRzRn8MzW-21" edge="1">
                    <mxGeometry relative="1" as="geometry"/>
                </mxCell>
                <mxCell id="RUOIWVDQM4JpRzRn8MzW-26" style="edgeStyle=none;rounded=0;orthogonalLoop=1;jettySize=auto;html=1;exitX=1;exitY=0;exitDx=0;exitDy=0;entryX=0;entryY=0.5;entryDx=0;entryDy=0;endArrow=none;endFill=0;" parent="1" source="RUOIWVDQM4JpRzRn8MzW-7" target="RUOIWVDQM4JpRzRn8MzW-22" edge="1">
                    <mxGeometry relative="1" as="geometry"/>
                </mxCell>
                <mxCell id="RUOIWVDQM4JpRzRn8MzW-7" value="PERMANENT_COLLECTION" style="rounded=0;whiteSpace=wrap;html=1;" parent="1" vertex="1">
                    <mxGeometry x="660" y="1360" width="170" height="60" as="geometry"/>
                </mxCell>
                <mxCell id="RUOIWVDQM4JpRzRn8MzW-30" style="edgeStyle=none;rounded=0;orthogonalLoop=1;jettySize=auto;html=1;exitX=1;exitY=0;exitDx=0;exitDy=0;entryX=0;entryY=0.5;entryDx=0;entryDy=0;endArrow=none;endFill=0;" parent="1" source="RUOIWVDQM4JpRzRn8MzW-8" target="RUOIWVDQM4JpRzRn8MzW-27" edge="1">
                    <mxGeometry relative="1" as="geometry"/>
                </mxCell>
                <mxCell id="RUOIWVDQM4JpRzRn8MzW-31" style="edgeStyle=none;rounded=0;orthogonalLoop=1;jettySize=auto;html=1;exitX=1;exitY=0;exitDx=0;exitDy=0;entryX=0;entryY=0.5;entryDx=0;entryDy=0;endArrow=none;endFill=0;" parent="1" source="RUOIWVDQM4JpRzRn8MzW-8" target="RUOIWVDQM4JpRzRn8MzW-28" edge="1">
                    <mxGeometry relative="1" as="geometry"/>
                </mxCell>
                <mxCell id="RUOIWVDQM4JpRzRn8MzW-32" style="edgeStyle=none;rounded=0;orthogonalLoop=1;jettySize=auto;html=1;exitX=1;exitY=0;exitDx=0;exitDy=0;entryX=0.5;entryY=0;entryDx=0;entryDy=0;endArrow=none;endFill=0;" parent="1" source="RUOIWVDQM4JpRzRn8MzW-8" target="RUOIWVDQM4JpRzRn8MzW-29" edge="1">
                    <mxGeometry relative="1" as="geometry"/>
                </mxCell>
                <mxCell id="RUOIWVDQM4JpRzRn8MzW-8" value="BORROWED" style="rounded=0;whiteSpace=wrap;html=1;" parent="1" vertex="1">
                    <mxGeometry x="660" y="1485" width="120" height="60" as="geometry"/>
                </mxCell>
                <mxCell id="RUOIWVDQM4JpRzRn8MzW-18" value="" style="edgeStyle=none;rounded=0;orthogonalLoop=1;jettySize=auto;html=1;exitX=1;exitY=1;exitDx=0;exitDy=0;entryX=0;entryY=0.5;entryDx=0;entryDy=0;endArrow=none;endFill=0;" parent="1" source="RUOIWVDQM4JpRzRn8MzW-2" target="RUOIWVDQM4JpRzRn8MzW-17" edge="1">
                    <mxGeometry relative="1" as="geometry">
                        <mxPoint x="576" y="1481" as="sourcePoint"/>
                        <mxPoint x="660" y="1515" as="targetPoint"/>
                    </mxGeometry>
                </mxCell>
                <mxCell id="RUOIWVDQM4JpRzRn8MzW-17" value="" style="shape=requiredInterface;html=1;verticalLabelPosition=bottom;sketch=0;rotation=30;" parent="1" vertex="1">
                    <mxGeometry x="610" y="1485" width="10" height="20" as="geometry"/>
                </mxCell>
                <mxCell id="RUOIWVDQM4JpRzRn8MzW-19" value="" style="shape=requiredInterface;html=1;verticalLabelPosition=bottom;sketch=0;rotation=-30;" parent="1" vertex="1">
                    <mxGeometry x="610" y="1420" width="10" height="20" as="geometry"/>
                </mxCell>
                <mxCell id="RUOIWVDQM4JpRzRn8MzW-21" value="date_acquired" style="ellipse;whiteSpace=wrap;html=1;" parent="1" vertex="1">
                    <mxGeometry x="910" y="1270" width="110" height="50" as="geometry"/>
                </mxCell>
                <mxCell id="RUOIWVDQM4JpRzRn8MzW-22" value="status" style="ellipse;whiteSpace=wrap;html=1;" parent="1" vertex="1">
                    <mxGeometry x="920" y="1360" width="110" height="50" as="geometry"/>
                </mxCell>
                <mxCell id="RUOIWVDQM4JpRzRn8MzW-23" value="cost" style="ellipse;whiteSpace=wrap;html=1;" parent="1" vertex="1">
                    <mxGeometry x="770" y="1240" width="110" height="50" as="geometry"/>
                </mxCell>
                <mxCell id="RUOIWVDQM4JpRzRn8MzW-24" style="edgeStyle=none;rounded=0;orthogonalLoop=1;jettySize=auto;html=1;exitX=1;exitY=0;exitDx=0;exitDy=0;entryX=0.544;entryY=1.047;entryDx=0;entryDy=0;entryPerimeter=0;endArrow=none;endFill=0;" parent="1" source="RUOIWVDQM4JpRzRn8MzW-7" target="RUOIWVDQM4JpRzRn8MzW-23" edge="1">
                    <mxGeometry relative="1" as="geometry"/>
                </mxCell>
                <mxCell id="RUOIWVDQM4JpRzRn8MzW-27" value="date_borrwed" style="ellipse;whiteSpace=wrap;html=1;" parent="1" vertex="1">
                    <mxGeometry x="920" y="1450" width="100" height="50" as="geometry"/>
                </mxCell>
                <mxCell id="RUOIWVDQM4JpRzRn8MzW-28" value="date_returned" style="ellipse;whiteSpace=wrap;html=1;" parent="1" vertex="1">
                    <mxGeometry x="900" y="1530" width="100" height="50" as="geometry"/>
                </mxCell>
                <mxCell id="RUOIWVDQM4JpRzRn8MzW-29" value="collection" style="ellipse;whiteSpace=wrap;html=1;" parent="1" vertex="1">
                    <mxGeometry x="790" y="1590" width="100" height="50" as="geometry"/>
                </mxCell>
                <mxCell id="7" style="edgeStyle=none;html=1;exitX=0;exitY=0.5;exitDx=0;exitDy=0;endArrow=none;endFill=0;" edge="1" parent="1" source="RUOIWVDQM4JpRzRn8MzW-33">
                    <mxGeometry relative="1" as="geometry">
                        <mxPoint x="140" y="1410" as="targetPoint"/>
                    </mxGeometry>
                </mxCell>
                <mxCell id="8" style="edgeStyle=none;html=1;exitX=0;exitY=0.5;exitDx=0;exitDy=0;endArrow=none;endFill=0;" edge="1" parent="1" source="RUOIWVDQM4JpRzRn8MzW-33">
                    <mxGeometry relative="1" as="geometry">
                        <mxPoint x="50" y="1429.9999999999998" as="targetPoint"/>
                    </mxGeometry>
                </mxCell>
                <mxCell id="9" style="edgeStyle=none;html=1;exitX=0;exitY=0.5;exitDx=0;exitDy=0;endArrow=none;endFill=0;" edge="1" parent="1" source="RUOIWVDQM4JpRzRn8MzW-33">
                    <mxGeometry relative="1" as="geometry">
                        <mxPoint x="20" y="1520" as="targetPoint"/>
                    </mxGeometry>
                </mxCell>
                <mxCell id="10" style="edgeStyle=none;html=1;exitX=0;exitY=0.5;exitDx=0;exitDy=0;endArrow=none;endFill=0;" edge="1" parent="1" source="RUOIWVDQM4JpRzRn8MzW-33">
                    <mxGeometry relative="1" as="geometry">
                        <mxPoint x="100" y="1550" as="targetPoint"/>
                    </mxGeometry>
                </mxCell>
                <mxCell id="RUOIWVDQM4JpRzRn8MzW-33" value="d" style="ellipse;whiteSpace=wrap;html=1;aspect=fixed;" parent="1" vertex="1">
                    <mxGeometry x="220" y="1455" width="30" height="30" as="geometry"/>
                </mxCell>
                <mxCell id="3" style="edgeStyle=none;html=1;exitX=1;exitY=1;exitDx=0;exitDy=0;endArrow=halfCircle;endFill=0;" edge="1" parent="1" source="RUOIWVDQM4JpRzRn8MzW-35">
                    <mxGeometry relative="1" as="geometry">
                        <mxPoint x="150" y="1419.9999999999998" as="targetPoint"/>
                    </mxGeometry>
                </mxCell>
                <mxCell id="RUOIWVDQM4JpRzRn8MzW-35" value="OTHER" style="rounded=0;whiteSpace=wrap;html=1;" parent="1" vertex="1">
                    <mxGeometry x="-60" y="1280" width="120" height="60" as="geometry"/>
                </mxCell>
                <mxCell id="RUOIWVDQM4JpRzRn8MzW-69" style="edgeStyle=none;rounded=0;orthogonalLoop=1;jettySize=auto;html=1;exitX=0;exitY=0;exitDx=0;exitDy=0;entryX=0.5;entryY=1;entryDx=0;entryDy=0;endArrow=none;endFill=0;" parent="1" source="RUOIWVDQM4JpRzRn8MzW-36" target="RUOIWVDQM4JpRzRn8MzW-56" edge="1">
                    <mxGeometry relative="1" as="geometry"/>
                </mxCell>
                <mxCell id="RUOIWVDQM4JpRzRn8MzW-70" style="edgeStyle=none;rounded=0;orthogonalLoop=1;jettySize=auto;html=1;exitX=0;exitY=0;exitDx=0;exitDy=0;entryX=1;entryY=1;entryDx=0;entryDy=0;endArrow=none;endFill=0;" parent="1" source="RUOIWVDQM4JpRzRn8MzW-36" target="RUOIWVDQM4JpRzRn8MzW-58" edge="1">
                    <mxGeometry relative="1" as="geometry"/>
                </mxCell>
                <mxCell id="RUOIWVDQM4JpRzRn8MzW-71" style="edgeStyle=none;rounded=0;orthogonalLoop=1;jettySize=auto;html=1;exitX=0;exitY=0;exitDx=0;exitDy=0;entryX=1;entryY=0.5;entryDx=0;entryDy=0;endArrow=none;endFill=0;" parent="1" source="RUOIWVDQM4JpRzRn8MzW-36" target="RUOIWVDQM4JpRzRn8MzW-52" edge="1">
                    <mxGeometry relative="1" as="geometry"/>
                </mxCell>
                <mxCell id="4" style="edgeStyle=none;html=1;exitX=1;exitY=1;exitDx=0;exitDy=0;endArrow=halfCircle;endFill=0;" edge="1" parent="1" source="RUOIWVDQM4JpRzRn8MzW-36">
                    <mxGeometry relative="1" as="geometry">
                        <mxPoint x="130" y="1449.9999999999998" as="targetPoint"/>
                    </mxGeometry>
                </mxCell>
                <mxCell id="RUOIWVDQM4JpRzRn8MzW-36" value="SCULPTURE" style="rounded=0;whiteSpace=wrap;html=1;" parent="1" vertex="1">
                    <mxGeometry x="-230" y="1330" width="120" height="60" as="geometry"/>
                </mxCell>
                <mxCell id="5" style="edgeStyle=none;html=1;exitX=1;exitY=0.5;exitDx=0;exitDy=0;endArrow=halfCircle;endFill=0;" edge="1" parent="1" source="RUOIWVDQM4JpRzRn8MzW-37">
                    <mxGeometry relative="1" as="geometry">
                        <mxPoint x="30" y="1520" as="targetPoint"/>
                    </mxGeometry>
                </mxCell>
                <mxCell id="RUOIWVDQM4JpRzRn8MzW-37" value="STATUE" style="rounded=0;whiteSpace=wrap;html=1;" parent="1" vertex="1">
                    <mxGeometry x="-300" y="1550" width="120" height="60" as="geometry"/>
                </mxCell>
                <mxCell id="6" style="edgeStyle=none;html=1;exitX=1;exitY=0;exitDx=0;exitDy=0;endArrow=halfCircle;endFill=0;" edge="1" parent="1" source="RUOIWVDQM4JpRzRn8MzW-38">
                    <mxGeometry relative="1" as="geometry">
                        <mxPoint x="110" y="1540" as="targetPoint"/>
                    </mxGeometry>
                </mxCell>
                <mxCell id="RUOIWVDQM4JpRzRn8MzW-38" value="PAINTING" style="rounded=0;whiteSpace=wrap;html=1;" parent="1" vertex="1">
                    <mxGeometry x="-70" y="1590" width="120" height="60" as="geometry"/>
                </mxCell>
                <mxCell id="RUOIWVDQM4JpRzRn8MzW-40" value="" style="ellipse;whiteSpace=wrap;html=1;align=center;aspect=fixed;fillColor=none;strokeColor=none;resizable=0;perimeter=centerPerimeter;rotatable=0;allowArrows=0;points=[];outlineConnect=1;" parent="1" vertex="1">
                    <mxGeometry x="250" y="1390" width="10" height="10" as="geometry"/>
                </mxCell>
                <mxCell id="RUOIWVDQM4JpRzRn8MzW-43" value="" style="ellipse;whiteSpace=wrap;html=1;align=center;aspect=fixed;fillColor=none;strokeColor=none;resizable=0;perimeter=centerPerimeter;rotatable=0;allowArrows=0;points=[];outlineConnect=1;" parent="1" vertex="1">
                    <mxGeometry x="250" y="1390" width="10" height="10" as="geometry"/>
                </mxCell>
                <mxCell id="RUOIWVDQM4JpRzRn8MzW-45" value="" style="ellipse;whiteSpace=wrap;html=1;align=center;aspect=fixed;fillColor=none;strokeColor=none;resizable=0;perimeter=centerPerimeter;rotatable=0;allowArrows=0;points=[];outlineConnect=1;" parent="1" vertex="1">
                    <mxGeometry x="250" y="1390" width="10" height="10" as="geometry"/>
                </mxCell>
                <mxCell id="RUOIWVDQM4JpRzRn8MzW-47" value="" style="ellipse;whiteSpace=wrap;html=1;align=center;aspect=fixed;fillColor=none;strokeColor=none;resizable=0;perimeter=centerPerimeter;rotatable=0;allowArrows=0;points=[];outlineConnect=1;" parent="1" vertex="1">
                    <mxGeometry x="250" y="1390" width="10" height="10" as="geometry"/>
                </mxCell>
                <mxCell id="RUOIWVDQM4JpRzRn8MzW-52" value="weight" style="ellipse;whiteSpace=wrap;html=1;" parent="1" vertex="1">
                    <mxGeometry x="-425" y="1320" width="80" height="40" as="geometry"/>
                </mxCell>
                <mxCell id="RUOIWVDQM4JpRzRn8MzW-68" style="edgeStyle=none;rounded=0;orthogonalLoop=1;jettySize=auto;html=1;exitX=1;exitY=1;exitDx=0;exitDy=0;endArrow=none;endFill=0;" parent="1" source="RUOIWVDQM4JpRzRn8MzW-54" edge="1">
                    <mxGeometry relative="1" as="geometry">
                        <mxPoint y="1280" as="targetPoint"/>
                    </mxGeometry>
                </mxCell>
                <mxCell id="RUOIWVDQM4JpRzRn8MzW-54" value="type" style="ellipse;whiteSpace=wrap;html=1;" parent="1" vertex="1">
                    <mxGeometry x="-170" y="1220" width="80" height="40" as="geometry"/>
                </mxCell>
                <mxCell id="RUOIWVDQM4JpRzRn8MzW-56" value="style" style="ellipse;whiteSpace=wrap;html=1;" parent="1" vertex="1">
                    <mxGeometry x="-300" y="1230" width="80" height="40" as="geometry"/>
                </mxCell>
                <mxCell id="RUOIWVDQM4JpRzRn8MzW-67" style="edgeStyle=none;rounded=0;orthogonalLoop=1;jettySize=auto;html=1;exitX=0.5;exitY=1;exitDx=0;exitDy=0;entryX=0.5;entryY=0;entryDx=0;entryDy=0;endArrow=none;endFill=0;" parent="1" source="RUOIWVDQM4JpRzRn8MzW-57" target="RUOIWVDQM4JpRzRn8MzW-35" edge="1">
                    <mxGeometry relative="1" as="geometry"/>
                </mxCell>
                <mxCell id="RUOIWVDQM4JpRzRn8MzW-57" value="style" style="ellipse;whiteSpace=wrap;html=1;" parent="1" vertex="1">
                    <mxGeometry x="-70" y="1170" width="80" height="40" as="geometry"/>
                </mxCell>
                <mxCell id="RUOIWVDQM4JpRzRn8MzW-58" value="height" style="ellipse;whiteSpace=wrap;html=1;" parent="1" vertex="1">
                    <mxGeometry x="-390" y="1260" width="80" height="40" as="geometry"/>
                </mxCell>
                <mxCell id="RUOIWVDQM4JpRzRn8MzW-72" style="edgeStyle=none;rounded=0;orthogonalLoop=1;jettySize=auto;html=1;exitX=1;exitY=0.5;exitDx=0;exitDy=0;entryX=0;entryY=0;entryDx=0;entryDy=0;endArrow=none;endFill=0;" parent="1" source="RUOIWVDQM4JpRzRn8MzW-59" target="RUOIWVDQM4JpRzRn8MzW-36" edge="1">
                    <mxGeometry relative="1" as="geometry"/>
                </mxCell>
                <mxCell id="RUOIWVDQM4JpRzRn8MzW-59" value="material" style="ellipse;whiteSpace=wrap;html=1;" parent="1" vertex="1">
                    <mxGeometry x="-420" y="1380" width="80" height="40" as="geometry"/>
                </mxCell>
                <mxCell id="RUOIWVDQM4JpRzRn8MzW-73" style="edgeStyle=none;rounded=0;orthogonalLoop=1;jettySize=auto;html=1;exitX=1;exitY=0.5;exitDx=0;exitDy=0;entryX=0;entryY=0.5;entryDx=0;entryDy=0;endArrow=none;endFill=0;" parent="1" source="RUOIWVDQM4JpRzRn8MzW-60" target="RUOIWVDQM4JpRzRn8MzW-37" edge="1">
                    <mxGeometry relative="1" as="geometry"/>
                </mxCell>
                <mxCell id="RUOIWVDQM4JpRzRn8MzW-60" value="style" style="ellipse;whiteSpace=wrap;html=1;" parent="1" vertex="1">
                    <mxGeometry x="-465" y="1520" width="80" height="40" as="geometry"/>
                </mxCell>
                <mxCell id="RUOIWVDQM4JpRzRn8MzW-74" style="edgeStyle=none;rounded=0;orthogonalLoop=1;jettySize=auto;html=1;exitX=1;exitY=0.5;exitDx=0;exitDy=0;endArrow=none;endFill=0;" parent="1" source="RUOIWVDQM4JpRzRn8MzW-61" edge="1">
                    <mxGeometry relative="1" as="geometry">
                        <mxPoint x="-300" y="1580" as="targetPoint"/>
                    </mxGeometry>
                </mxCell>
                <mxCell id="RUOIWVDQM4JpRzRn8MzW-61" value="height" style="ellipse;whiteSpace=wrap;html=1;" parent="1" vertex="1">
                    <mxGeometry x="-465" y="1595" width="80" height="40" as="geometry"/>
                </mxCell>
                <mxCell id="RUOIWVDQM4JpRzRn8MzW-75" style="edgeStyle=none;rounded=0;orthogonalLoop=1;jettySize=auto;html=1;exitX=0.5;exitY=0;exitDx=0;exitDy=0;entryX=0;entryY=0.5;entryDx=0;entryDy=0;endArrow=none;endFill=0;" parent="1" source="RUOIWVDQM4JpRzRn8MzW-62" target="RUOIWVDQM4JpRzRn8MzW-37" edge="1">
                    <mxGeometry relative="1" as="geometry"/>
                </mxCell>
                <mxCell id="RUOIWVDQM4JpRzRn8MzW-62" value="weight" style="ellipse;whiteSpace=wrap;html=1;" parent="1" vertex="1">
                    <mxGeometry x="-380" y="1650" width="80" height="40" as="geometry"/>
                </mxCell>
                <mxCell id="RUOIWVDQM4JpRzRn8MzW-76" style="edgeStyle=none;rounded=0;orthogonalLoop=1;jettySize=auto;html=1;exitX=0.5;exitY=0;exitDx=0;exitDy=0;entryX=0.5;entryY=1;entryDx=0;entryDy=0;endArrow=none;endFill=0;" parent="1" source="RUOIWVDQM4JpRzRn8MzW-63" target="RUOIWVDQM4JpRzRn8MzW-37" edge="1">
                    <mxGeometry relative="1" as="geometry"/>
                </mxCell>
                <mxCell id="RUOIWVDQM4JpRzRn8MzW-63" value="material" style="ellipse;whiteSpace=wrap;html=1;" parent="1" vertex="1">
                    <mxGeometry x="-290" y="1680" width="80" height="40" as="geometry"/>
                </mxCell>
                <mxCell id="RUOIWVDQM4JpRzRn8MzW-78" style="edgeStyle=none;rounded=0;orthogonalLoop=1;jettySize=auto;html=1;exitX=0.5;exitY=0;exitDx=0;exitDy=0;endArrow=none;endFill=0;" parent="1" source="RUOIWVDQM4JpRzRn8MzW-64" edge="1">
                    <mxGeometry relative="1" as="geometry">
                        <mxPoint x="-10" y="1650" as="targetPoint"/>
                    </mxGeometry>
                </mxCell>
                <mxCell id="RUOIWVDQM4JpRzRn8MzW-64" value="drawn_on" style="ellipse;whiteSpace=wrap;html=1;" parent="1" vertex="1">
                    <mxGeometry x="-70" y="1750" width="80" height="40" as="geometry"/>
                </mxCell>
                <mxCell id="RUOIWVDQM4JpRzRn8MzW-79" style="edgeStyle=none;rounded=0;orthogonalLoop=1;jettySize=auto;html=1;exitX=0.5;exitY=0;exitDx=0;exitDy=0;endArrow=none;endFill=0;" parent="1" source="RUOIWVDQM4JpRzRn8MzW-65" edge="1">
                    <mxGeometry relative="1" as="geometry">
                        <mxPoint x="-10" y="1650" as="targetPoint"/>
                    </mxGeometry>
                </mxCell>
                <mxCell id="RUOIWVDQM4JpRzRn8MzW-65" value="style" style="ellipse;whiteSpace=wrap;html=1;" parent="1" vertex="1">
                    <mxGeometry x="50" y="1750" width="80" height="40" as="geometry"/>
                </mxCell>
                <mxCell id="RUOIWVDQM4JpRzRn8MzW-77" style="edgeStyle=none;rounded=0;orthogonalLoop=1;jettySize=auto;html=1;exitX=0.5;exitY=0;exitDx=0;exitDy=0;entryX=0.5;entryY=1;entryDx=0;entryDy=0;endArrow=none;endFill=0;" parent="1" source="RUOIWVDQM4JpRzRn8MzW-66" target="RUOIWVDQM4JpRzRn8MzW-38" edge="1">
                    <mxGeometry relative="1" as="geometry"/>
                </mxCell>
                <mxCell id="RUOIWVDQM4JpRzRn8MzW-66" value="paint_type" style="ellipse;whiteSpace=wrap;html=1;" parent="1" vertex="1">
                    <mxGeometry x="-190" y="1750" width="80" height="40" as="geometry"/>
                </mxCell>
                <mxCell id="RUOIWVDQM4JpRzRn8MzW-109" style="edgeStyle=none;rounded=0;orthogonalLoop=1;jettySize=auto;html=1;exitX=0.5;exitY=0;exitDx=0;exitDy=0;entryX=0.5;entryY=1;entryDx=0;entryDy=0;endArrow=none;endFill=0;" parent="1" source="RUOIWVDQM4JpRzRn8MzW-80" target="RUOIWVDQM4JpRzRn8MzW-104" edge="1">
                    <mxGeometry relative="1" as="geometry"/>
                </mxCell>
                <mxCell id="RUOIWVDQM4JpRzRn8MzW-80" value="DISPLAYED IN" style="rhombus;whiteSpace=wrap;html=1;" parent="1" vertex="1">
                    <mxGeometry x="290" y="1230" width="100" height="100" as="geometry"/>
                </mxCell>
                <mxCell id="RUOIWVDQM4JpRzRn8MzW-132" style="edgeStyle=none;rounded=0;orthogonalLoop=1;jettySize=auto;html=1;exitX=0.5;exitY=0;exitDx=0;exitDy=0;entryX=0.5;entryY=1;entryDx=0;entryDy=0;endArrow=none;endFill=0;" parent="1" source="RUOIWVDQM4JpRzRn8MzW-81" target="RUOIWVDQM4JpRzRn8MzW-105" edge="1">
                    <mxGeometry relative="1" as="geometry"/>
                </mxCell>
                <mxCell id="RUOIWVDQM4JpRzRn8MzW-81" value="HAS A" style="rhombus;whiteSpace=wrap;html=1;" parent="1" vertex="1">
                    <mxGeometry x="440" y="1230" width="100" height="100" as="geometry"/>
                </mxCell>
                <mxCell id="RUOIWVDQM4JpRzRn8MzW-86" style="edgeStyle=none;rounded=0;orthogonalLoop=1;jettySize=auto;html=1;exitX=0.5;exitY=1;exitDx=0;exitDy=0;entryX=0.5;entryY=0;entryDx=0;entryDy=0;endArrow=none;endFill=0;" parent="1" source="RUOIWVDQM4JpRzRn8MzW-82" target="RUOIWVDQM4JpRzRn8MzW-85" edge="1">
                    <mxGeometry relative="1" as="geometry"/>
                </mxCell>
                <mxCell id="RUOIWVDQM4JpRzRn8MzW-82" value="A PART OF" style="rhombus;whiteSpace=wrap;html=1;" parent="1" vertex="1">
                    <mxGeometry x="370" y="1600" width="80" height="80" as="geometry"/>
                </mxCell>
                <mxCell id="RUOIWVDQM4JpRzRn8MzW-85" value="COLLECTIONS" style="rounded=0;whiteSpace=wrap;html=1;" parent="1" vertex="1">
                    <mxGeometry x="350" y="1740" width="120" height="60" as="geometry"/>
                </mxCell>
                <mxCell id="RUOIWVDQM4JpRzRn8MzW-95" style="edgeStyle=none;rounded=0;orthogonalLoop=1;jettySize=auto;html=1;exitX=1;exitY=0;exitDx=0;exitDy=0;entryX=0.5;entryY=1;entryDx=0;entryDy=0;endArrow=none;endFill=0;" parent="1" source="RUOIWVDQM4JpRzRn8MzW-87" target="RUOIWVDQM4JpRzRn8MzW-85" edge="1">
                    <mxGeometry relative="1" as="geometry"/>
                </mxCell>
                <mxCell id="RUOIWVDQM4JpRzRn8MzW-87" value="&lt;u&gt;C_name&lt;/u&gt;" style="ellipse;whiteSpace=wrap;html=1;" parent="1" vertex="1">
                    <mxGeometry x="230" y="1850" width="80" height="40" as="geometry"/>
                </mxCell>
                <mxCell id="RUOIWVDQM4JpRzRn8MzW-96" style="edgeStyle=none;rounded=0;orthogonalLoop=1;jettySize=auto;html=1;exitX=0.5;exitY=0;exitDx=0;exitDy=0;endArrow=none;endFill=0;" parent="1" source="RUOIWVDQM4JpRzRn8MzW-88" edge="1">
                    <mxGeometry relative="1" as="geometry">
                        <mxPoint x="410" y="1800" as="targetPoint"/>
                    </mxGeometry>
                </mxCell>
                <mxCell id="RUOIWVDQM4JpRzRn8MzW-88" value="type" style="ellipse;whiteSpace=wrap;html=1;" parent="1" vertex="1">
                    <mxGeometry x="320" y="1880" width="80" height="40" as="geometry"/>
                </mxCell>
                <mxCell id="RUOIWVDQM4JpRzRn8MzW-97" style="edgeStyle=none;rounded=0;orthogonalLoop=1;jettySize=auto;html=1;exitX=0.5;exitY=0;exitDx=0;exitDy=0;endArrow=none;endFill=0;" parent="1" source="RUOIWVDQM4JpRzRn8MzW-89" edge="1">
                    <mxGeometry relative="1" as="geometry">
                        <mxPoint x="410" y="1800" as="targetPoint"/>
                    </mxGeometry>
                </mxCell>
                <mxCell id="RUOIWVDQM4JpRzRn8MzW-89" value="description" style="ellipse;whiteSpace=wrap;html=1;" parent="1" vertex="1">
                    <mxGeometry x="420" y="1880" width="80" height="40" as="geometry"/>
                </mxCell>
                <mxCell id="RUOIWVDQM4JpRzRn8MzW-98" style="edgeStyle=none;rounded=0;orthogonalLoop=1;jettySize=auto;html=1;exitX=0;exitY=0;exitDx=0;exitDy=0;entryX=0.5;entryY=1;entryDx=0;entryDy=0;endArrow=none;endFill=0;" parent="1" source="RUOIWVDQM4JpRzRn8MzW-90" target="RUOIWVDQM4JpRzRn8MzW-85" edge="1">
                    <mxGeometry relative="1" as="geometry"/>
                </mxCell>
                <mxCell id="RUOIWVDQM4JpRzRn8MzW-90" value="phone" style="ellipse;whiteSpace=wrap;html=1;" parent="1" vertex="1">
                    <mxGeometry x="510" y="1850" width="80" height="40" as="geometry"/>
                </mxCell>
                <mxCell id="RUOIWVDQM4JpRzRn8MzW-93" style="edgeStyle=none;rounded=0;orthogonalLoop=1;jettySize=auto;html=1;exitX=1;exitY=0.5;exitDx=0;exitDy=0;entryX=0;entryY=0.5;entryDx=0;entryDy=0;endArrow=none;endFill=0;" parent="1" source="RUOIWVDQM4JpRzRn8MzW-91" target="RUOIWVDQM4JpRzRn8MzW-85" edge="1">
                    <mxGeometry relative="1" as="geometry"/>
                </mxCell>
                <mxCell id="RUOIWVDQM4JpRzRn8MzW-91" value="address" style="ellipse;whiteSpace=wrap;html=1;" parent="1" vertex="1">
                    <mxGeometry x="210" y="1780" width="80" height="40" as="geometry"/>
                </mxCell>
                <mxCell id="RUOIWVDQM4JpRzRn8MzW-94" style="edgeStyle=none;rounded=0;orthogonalLoop=1;jettySize=auto;html=1;exitX=0;exitY=0.5;exitDx=0;exitDy=0;entryX=1;entryY=0.5;entryDx=0;entryDy=0;endArrow=none;endFill=0;" parent="1" source="RUOIWVDQM4JpRzRn8MzW-92" target="RUOIWVDQM4JpRzRn8MzW-85" edge="1">
                    <mxGeometry relative="1" as="geometry"/>
                </mxCell>
                <mxCell id="RUOIWVDQM4JpRzRn8MzW-92" value="contact_person" style="ellipse;whiteSpace=wrap;html=1;" parent="1" vertex="1">
                    <mxGeometry x="520" y="1780" width="90" height="40" as="geometry"/>
                </mxCell>
                <mxCell id="RUOIWVDQM4JpRzRn8MzW-99" value="1" style="text;html=1;align=center;verticalAlign=middle;resizable=0;points=[];autosize=1;strokeColor=none;fillColor=none;" parent="1" vertex="1">
                    <mxGeometry x="410" y="1580" width="30" height="30" as="geometry"/>
                </mxCell>
                <mxCell id="RUOIWVDQM4JpRzRn8MzW-100" value="M" style="text;html=1;align=center;verticalAlign=middle;resizable=0;points=[];autosize=1;strokeColor=none;fillColor=none;" parent="1" vertex="1">
                    <mxGeometry x="410" y="1668" width="30" height="30" as="geometry"/>
                </mxCell>
                <mxCell id="RUOIWVDQM4JpRzRn8MzW-104" value="EXHIBITION" style="rounded=0;whiteSpace=wrap;html=1;" parent="1" vertex="1">
                    <mxGeometry x="140" y="990" width="120" height="60" as="geometry"/>
                </mxCell>
                <mxCell id="RUOIWVDQM4JpRzRn8MzW-127" style="edgeStyle=none;rounded=0;orthogonalLoop=1;jettySize=auto;html=1;exitX=0.5;exitY=0;exitDx=0;exitDy=0;entryX=1;entryY=1;entryDx=0;entryDy=0;endArrow=none;endFill=0;" parent="1" source="RUOIWVDQM4JpRzRn8MzW-105" target="RUOIWVDQM4JpRzRn8MzW-116" edge="1">
                    <mxGeometry relative="1" as="geometry"/>
                </mxCell>
                <mxCell id="RUOIWVDQM4JpRzRn8MzW-128" style="edgeStyle=none;rounded=0;orthogonalLoop=1;jettySize=auto;html=1;exitX=0.5;exitY=0;exitDx=0;exitDy=0;entryX=0.5;entryY=1;entryDx=0;entryDy=0;endArrow=none;endFill=0;" parent="1" source="RUOIWVDQM4JpRzRn8MzW-105" target="RUOIWVDQM4JpRzRn8MzW-117" edge="1">
                    <mxGeometry relative="1" as="geometry"/>
                </mxCell>
                <mxCell id="RUOIWVDQM4JpRzRn8MzW-130" style="edgeStyle=none;rounded=0;orthogonalLoop=1;jettySize=auto;html=1;exitX=1;exitY=0.5;exitDx=0;exitDy=0;entryX=0;entryY=1;entryDx=0;entryDy=0;endArrow=none;endFill=0;" parent="1" source="RUOIWVDQM4JpRzRn8MzW-105" target="RUOIWVDQM4JpRzRn8MzW-119" edge="1">
                    <mxGeometry relative="1" as="geometry"/>
                </mxCell>
                <mxCell id="RUOIWVDQM4JpRzRn8MzW-105" value="ARTIST" style="rounded=0;whiteSpace=wrap;html=1;" parent="1" vertex="1">
                    <mxGeometry x="520" y="990" width="120" height="60" as="geometry"/>
                </mxCell>
                <mxCell id="RUOIWVDQM4JpRzRn8MzW-112" style="edgeStyle=none;rounded=0;orthogonalLoop=1;jettySize=auto;html=1;exitX=1;exitY=1;exitDx=0;exitDy=0;entryX=0.5;entryY=0;entryDx=0;entryDy=0;endArrow=none;endFill=0;" parent="1" source="RUOIWVDQM4JpRzRn8MzW-106" target="RUOIWVDQM4JpRzRn8MzW-104" edge="1">
                    <mxGeometry relative="1" as="geometry"/>
                </mxCell>
                <mxCell id="RUOIWVDQM4JpRzRn8MzW-106" value="&lt;u&gt;name&lt;/u&gt;" style="ellipse;whiteSpace=wrap;html=1;" parent="1" vertex="1">
                    <mxGeometry x="50" y="920" width="80" height="40" as="geometry"/>
                </mxCell>
                <mxCell id="RUOIWVDQM4JpRzRn8MzW-113" style="edgeStyle=none;rounded=0;orthogonalLoop=1;jettySize=auto;html=1;exitX=0.5;exitY=1;exitDx=0;exitDy=0;endArrow=none;endFill=0;" parent="1" source="RUOIWVDQM4JpRzRn8MzW-107" edge="1">
                    <mxGeometry relative="1" as="geometry">
                        <mxPoint x="200" y="990" as="targetPoint"/>
                    </mxGeometry>
                </mxCell>
                <mxCell id="RUOIWVDQM4JpRzRn8MzW-107" value="start_date" style="ellipse;whiteSpace=wrap;html=1;" parent="1" vertex="1">
                    <mxGeometry x="150" y="920" width="80" height="40" as="geometry"/>
                </mxCell>
                <mxCell id="RUOIWVDQM4JpRzRn8MzW-115" style="edgeStyle=none;rounded=0;orthogonalLoop=1;jettySize=auto;html=1;exitX=0;exitY=1;exitDx=0;exitDy=0;entryX=0.5;entryY=0;entryDx=0;entryDy=0;endArrow=none;endFill=0;" parent="1" source="RUOIWVDQM4JpRzRn8MzW-108" target="RUOIWVDQM4JpRzRn8MzW-104" edge="1">
                    <mxGeometry relative="1" as="geometry"/>
                </mxCell>
                <mxCell id="RUOIWVDQM4JpRzRn8MzW-108" value="end_date" style="ellipse;whiteSpace=wrap;html=1;" parent="1" vertex="1">
                    <mxGeometry x="250" y="920" width="80" height="40" as="geometry"/>
                </mxCell>
                <mxCell id="RUOIWVDQM4JpRzRn8MzW-110" value="M" style="text;html=1;align=center;verticalAlign=middle;resizable=0;points=[];autosize=1;strokeColor=none;fillColor=none;" parent="1" vertex="1">
                    <mxGeometry x="335" y="1208" width="30" height="30" as="geometry"/>
                </mxCell>
                <mxCell id="RUOIWVDQM4JpRzRn8MzW-111" value="1" style="text;html=1;align=center;verticalAlign=middle;resizable=0;points=[];autosize=1;strokeColor=none;fillColor=none;" parent="1" vertex="1">
                    <mxGeometry x="340" y="1320" width="30" height="30" as="geometry"/>
                </mxCell>
                <mxCell id="RUOIWVDQM4JpRzRn8MzW-116" value="date_born" style="ellipse;whiteSpace=wrap;html=1;" parent="1" vertex="1">
                    <mxGeometry x="450" y="920" width="80" height="40" as="geometry"/>
                </mxCell>
                <mxCell id="RUOIWVDQM4JpRzRn8MzW-117" value="date_died" style="ellipse;whiteSpace=wrap;html=1;" parent="1" vertex="1">
                    <mxGeometry x="540" y="920" width="80" height="40" as="geometry"/>
                </mxCell>
                <mxCell id="RUOIWVDQM4JpRzRn8MzW-129" style="edgeStyle=none;rounded=0;orthogonalLoop=1;jettySize=auto;html=1;exitX=0;exitY=1;exitDx=0;exitDy=0;endArrow=none;endFill=0;" parent="1" source="RUOIWVDQM4JpRzRn8MzW-118" edge="1">
                    <mxGeometry relative="1" as="geometry">
                        <mxPoint x="580" y="990" as="targetPoint"/>
                    </mxGeometry>
                </mxCell>
                <mxCell id="RUOIWVDQM4JpRzRn8MzW-118" value="country_origin" style="ellipse;whiteSpace=wrap;html=1;" parent="1" vertex="1">
                    <mxGeometry x="630" y="920" width="80" height="40" as="geometry"/>
                </mxCell>
                <mxCell id="RUOIWVDQM4JpRzRn8MzW-119" value="epoch" style="ellipse;whiteSpace=wrap;html=1;" parent="1" vertex="1">
                    <mxGeometry x="670" y="970" width="80" height="40" as="geometry"/>
                </mxCell>
                <mxCell id="RUOIWVDQM4JpRzRn8MzW-126" style="edgeStyle=none;rounded=0;orthogonalLoop=1;jettySize=auto;html=1;exitX=1;exitY=0.5;exitDx=0;exitDy=0;endArrow=none;endFill=0;" parent="1" source="RUOIWVDQM4JpRzRn8MzW-120" edge="1">
                    <mxGeometry relative="1" as="geometry">
                        <mxPoint x="520" y="1020" as="targetPoint"/>
                    </mxGeometry>
                </mxCell>
                <mxCell id="RUOIWVDQM4JpRzRn8MzW-120" value="&lt;u&gt;name&lt;/u&gt;" style="ellipse;whiteSpace=wrap;html=1;" parent="1" vertex="1">
                    <mxGeometry x="400" y="970" width="80" height="40" as="geometry"/>
                </mxCell>
                <mxCell id="RUOIWVDQM4JpRzRn8MzW-125" style="edgeStyle=none;rounded=0;orthogonalLoop=1;jettySize=auto;html=1;exitX=1;exitY=0.5;exitDx=0;exitDy=0;entryX=0;entryY=0.5;entryDx=0;entryDy=0;endArrow=none;endFill=0;" parent="1" source="RUOIWVDQM4JpRzRn8MzW-121" target="RUOIWVDQM4JpRzRn8MzW-105" edge="1">
                    <mxGeometry relative="1" as="geometry"/>
                </mxCell>
                <mxCell id="RUOIWVDQM4JpRzRn8MzW-121" value="description" style="ellipse;whiteSpace=wrap;html=1;" parent="1" vertex="1">
                    <mxGeometry x="400" y="1030" width="80" height="40" as="geometry"/>
                </mxCell>
                <mxCell id="RUOIWVDQM4JpRzRn8MzW-131" style="edgeStyle=none;rounded=0;orthogonalLoop=1;jettySize=auto;html=1;exitX=0;exitY=0.5;exitDx=0;exitDy=0;entryX=1;entryY=0.5;entryDx=0;entryDy=0;endArrow=none;endFill=0;" parent="1" source="RUOIWVDQM4JpRzRn8MzW-122" target="RUOIWVDQM4JpRzRn8MzW-105" edge="1">
                    <mxGeometry relative="1" as="geometry"/>
                </mxCell>
                <mxCell id="RUOIWVDQM4JpRzRn8MzW-122" value="main_style" style="ellipse;whiteSpace=wrap;html=1;" parent="1" vertex="1">
                    <mxGeometry x="670" y="1030" width="80" height="40" as="geometry"/>
                </mxCell>
                <mxCell id="RUOIWVDQM4JpRzRn8MzW-123" value="M" style="text;html=1;align=center;verticalAlign=middle;resizable=0;points=[];autosize=1;strokeColor=none;fillColor=none;" parent="1" vertex="1">
                    <mxGeometry x="495" y="1208" width="30" height="30" as="geometry"/>
                </mxCell>
                <mxCell id="RUOIWVDQM4JpRzRn8MzW-124" value="1" style="text;html=1;align=center;verticalAlign=middle;resizable=0;points=[];autosize=1;strokeColor=none;fillColor=none;" parent="1" vertex="1">
                    <mxGeometry x="485" y="1318" width="30" height="30" as="geometry"/>
                </mxCell>
            </root>
        </mxGraphModel>
    </diagram>
</mxfile>